<?xml version="1.0" encoding="utf-8" ?>
<svg xmlns="http://www.w3.org/2000/svg" xmlns:xlink="http://www.w3.org/1999/xlink" width="550" height="550">
	<path fill="#F6ECD6" d="M417.184 185.804C418.937 187.72 421.123 190.283 423.524 191.39C421.167 191.26 418.032 189.445 415.724 188.625C416.48 188.434 417.013 188.391 417.591 187.835C417.498 187.142 417.351 186.482 417.184 185.804Z"/>
	<path fill="#FAA21F" d="M215.842 91.4163C217.205 90.427 218.566 89.6473 220.289 89.5949C225.747 89.4291 227.774 102.381 228.259 106.206C228.458 107.78 228.303 111.149 229.005 112.425C229.121 112.636 229.346 112.765 229.517 112.936C227.987 114.258 223.274 115.762 221.206 115.607C221.016 115.592 220.819 115.534 220.637 115.49L220.112 114.738C217.745 106.881 215.175 99.815 215.842 91.4163Z"/>
	<path fill="#FAA21F" d="M327.273 88.1038C328.795 87.9179 330.693 87.4625 332.008 88.4962C333.053 89.318 333.18 91.1117 333.181 92.3323C333.191 100.117 331.148 106.535 328.854 113.852L328.313 114.678C327.939 114.846 327.68 114.9 327.268 114.858C325.599 114.691 320.114 113.493 319.087 112.232C319.293 106.396 321.743 93.2547 326.088 89.078C326.462 88.7178 326.854 88.4092 327.273 88.1038Z"/>
	<path fill="#FAA21F" d="M129.783 175.812C123.712 171.944 112.27 167.466 109.189 160.669C108.532 159.219 107.889 156.902 108.67 155.381C109.07 154.601 109.854 154.208 110.677 154.045C116.064 152.975 124.609 158.975 128.61 162.163C131.147 164.185 133.486 166.582 136.157 168.412C136.222 168.457 136.288 168.5 136.353 168.544C135.556 170.022 131.428 175.357 130.024 175.772C129.946 175.795 129.864 175.799 129.783 175.812Z"/>
	<path fill="#FEBE0E" d="M262.799 107.198C263.029 100.046 262.557 92.8325 262.931 85.7012C263.247 79.6864 264.299 73.4666 265.144 67.4859C265.557 64.5565 265.688 61.5969 266.528 58.743C267.083 56.8586 267.947 54.9859 269.367 53.5932C270.548 52.4348 272.02 51.8401 273.674 51.8606C276.061 51.8901 278.123 52.9307 279.724 54.6628Q280.265 55.2378 280.724 55.8806Q281.183 56.5233 281.551 57.2219Q281.919 57.9206 282.19 58.6625Q282.461 59.4044 282.629 60.176C284.142 66.8741 283.397 74.5657 283.46 81.4124C283.539 89.9459 283.93 98.6236 283.473 107.148Q283.452 107.486 283.422 107.823C282.001 108.276 264.664 108.865 263.624 108.481C262.964 108.237 263.003 107.8 262.799 107.198Z"/>
	<path fill="#FEBE0E" d="M163.871 143.846C162.608 141.582 160.459 139.564 158.879 137.483C154.588 131.829 150.992 125.267 147.38 119.162C143.293 112.254 138.313 104.928 135.747 97.2975C134.834 94.585 134.401 91.503 134.863 88.6612C135.098 87.2156 135.604 86.3457 136.845 85.5403C138.649 84.3689 140.725 83.8784 142.834 84.3914C151.535 86.5069 166.022 109.654 171.414 117.652C173.523 120.781 175.89 123.777 177.848 127.001C178.956 128.825 179.598 130.866 180.679 132.705C180.725 132.784 180.773 132.862 180.82 132.94C180.38 133.972 167.084 143.392 165.067 144.567C164.41 144.413 164.347 144.334 163.871 143.846Z"/>
	<defs>
		<linearGradient id="gradient_0" gradientUnits="userSpaceOnUse" x1="79.937553" y1="223.7529" x2="79.426125" y2="186.58974">
			<stop offset="0" stop-color="#FA950E"/>
			<stop offset="1" stop-color="#FFB528"/>
		</linearGradient>
	</defs>
	<path fill="url(#gradient_0)" d="M103.659 224.648C100.782 223.413 97.6271 223.171 94.6021 222.439C85.5472 220.247 62.1173 208.939 54.5144 203.195C52.5501 201.711 50.6501 199.94 49.4125 197.788C48.3721 195.979 47.8551 193.817 48.5105 191.783C49.1016 189.949 50.3881 188.565 52.0919 187.693C54.3273 186.549 56.9561 186.262 59.4306 186.491C67.9805 187.282 89.9274 196.085 98.2658 199.98C101.307 201.401 107.353 204.934 110.138 205.679C110.903 205.884 111.144 205.613 111.795 205.27C111.3 209.095 108.549 213.371 106.958 216.892C105.798 219.459 104.77 222.063 103.659 224.648Z"/>
	<path fill="#FAA21F" d="M391.395 151.988L391.644 151.759C395.667 148.018 399.189 143.756 403.004 139.814C405.521 137.214 408.303 134.835 410.876 132.282C417.552 125.657 434.837 107.44 444.453 107.875C446.43 107.964 448.158 108.716 449.493 110.192C451.092 111.96 451.725 114.276 451.53 116.63C451.286 119.582 449.784 122.325 448.105 124.707C442.138 133.169 427.13 145.723 418.894 152.396C415.464 155.175 405.162 161.698 403.222 164.807C401.079 163.729 392.845 154.298 391.395 151.988Z"/>
	<path fill="#F8F9F8" d="M262.799 107.198C263.003 107.8 262.964 108.237 263.624 108.481C264.664 108.865 282.001 108.276 283.422 107.823C293.25 107.088 303.495 109.148 313.106 111.04C315.04 111.421 317.236 111.614 319.087 112.232C320.114 113.493 325.599 114.691 327.268 114.858C327.68 114.9 327.939 114.846 328.313 114.678L328.854 113.852C329.058 114.615 329.089 114.999 329.801 115.407C333.082 117.283 337.51 118.197 341.093 119.565C347.013 121.824 352.654 124.653 358.149 127.801C364.442 131.406 370.999 135.067 376.659 139.617C381.136 143.216 386.906 149.059 391.395 151.988C392.845 154.298 401.079 163.729 403.222 164.807C406.597 169.427 410.043 174.17 413.134 178.982C414.564 181.208 415.795 183.552 417.184 185.804C417.351 186.482 417.498 187.142 417.591 187.835C417.013 188.391 416.48 188.434 415.724 188.625C410.328 186.703 404.622 186.618 399.779 184.901C386.443 162.831 360.37 144.049 336.959 134.095C329.518 130.931 321.856 128.549 314.01 126.62Q312.004 126.144 309.987 125.718Q307.97 125.291 305.943 124.915Q303.916 124.538 301.88 124.211Q299.845 123.884 297.802 123.607Q295.759 123.331 293.709 123.104Q291.66 122.877 289.606 122.701Q287.552 122.525 285.494 122.399Q283.436 122.274 281.376 122.199Q279.315 122.123 277.254 122.099Q275.192 122.074 273.131 122.1Q271.069 122.127 269.009 122.203Q266.949 122.28 264.891 122.407Q262.833 122.535 260.779 122.712Q258.725 122.89 256.676 123.118Q254.627 123.346 252.584 123.625Q250.541 123.903 248.506 124.231Q246.471 124.56 244.444 124.938Q242.417 125.316 240.401 125.744Q238.384 126.172 236.378 126.65Q234.372 127.127 232.379 127.653Q230.386 128.18 228.406 128.755Q226.426 129.33 224.461 129.954Q222.496 130.578 220.547 131.249Q218.597 131.921 216.665 132.64Q214.733 133.36 212.819 134.126Q210.905 134.893 209.011 135.706Q207.116 136.52 205.242 137.379Q203.369 138.239 201.516 139.144Q199.664 140.049 197.835 141Q196.005 141.951 194.199 142.946Q192.394 143.941 190.613 144.98Q188.833 146.019 187.078 147.102Q184.789 148.504 182.545 149.977Q180.302 151.451 178.106 152.995Q175.91 154.539 173.765 156.152Q171.619 157.764 169.525 159.444Q167.432 161.124 165.393 162.869Q163.353 164.615 161.37 166.424Q159.387 168.233 157.463 170.104Q155.538 171.974 153.673 173.905Q151.809 175.836 150.007 177.825Q148.204 179.814 146.466 181.86Q144.727 183.905 143.054 186.004Q141.381 188.103 139.776 190.254Q138.17 192.405 136.634 194.606Q135.097 196.807 133.631 199.055Q132.165 201.304 130.771 203.598Q129.377 205.891 128.056 208.228C124.799 213.972 121.468 220.29 119.344 226.534C114.897 227.071 110.387 227.577 106.077 228.851C103.74 229.542 101.479 230.793 99.1094 231.291C100.746 230.301 103.288 229.155 104.065 227.301C104.457 226.369 104.004 225.517 103.659 224.648C104.77 222.063 105.798 219.459 106.958 216.892C108.549 213.371 111.3 209.095 111.795 205.27C114.167 201.315 115.833 197.041 118.362 193.139C120.706 189.524 129.137 178.871 129.783 175.812C129.864 175.799 129.946 175.795 130.024 175.772C131.428 175.357 135.556 170.022 136.353 168.544C141.569 163.573 146.751 158.655 152.211 153.947C156.087 150.603 160.348 147.568 163.871 143.846C164.347 144.334 164.41 144.413 165.067 144.567C167.084 143.392 180.38 133.972 180.82 132.94C182.855 131.682 185.276 130.73 187.428 129.64C193.913 126.357 200.336 123.182 207.103 120.497C210.458 119.166 213.925 118.148 217.207 116.63C218.307 116.121 219.277 115.644 220.112 114.738L220.637 115.49C220.819 115.534 221.016 115.592 221.206 115.607C223.274 115.762 227.987 114.258 229.517 112.936C231.524 112.202 233.971 111.965 236.083 111.555C240.252 110.747 244.444 109.84 248.655 109.289C253.391 108.67 258.174 108.484 262.799 107.198Z"/>
	<path fill="#20A5E3" d="M119.344 226.534C121.468 220.29 124.799 213.972 128.056 208.228Q129.377 205.891 130.771 203.598Q132.165 201.304 133.631 199.055Q135.097 196.807 136.634 194.606Q138.17 192.405 139.776 190.254Q141.381 188.103 143.054 186.004Q144.727 183.905 146.466 181.86Q148.204 179.814 150.007 177.825Q151.809 175.836 153.673 173.905Q155.538 171.974 157.463 170.104Q159.387 168.233 161.37 166.424Q163.353 164.615 165.393 162.869Q167.432 161.124 169.525 159.444Q171.619 157.764 173.765 156.152Q175.91 154.539 178.106 152.995Q180.302 151.451 182.545 149.977Q184.789 148.504 187.078 147.102Q188.833 146.019 190.613 144.98Q192.394 143.941 194.199 142.946Q196.005 141.951 197.835 141Q199.664 140.049 201.516 139.144Q203.369 138.239 205.242 137.379Q207.116 136.52 209.011 135.706Q210.905 134.893 212.819 134.126Q214.733 133.36 216.665 132.64Q218.597 131.921 220.547 131.249Q222.496 130.578 224.461 129.954Q226.426 129.33 228.406 128.755Q230.386 128.18 232.379 127.653Q234.372 127.127 236.378 126.65Q238.384 126.172 240.401 125.744Q242.417 125.316 244.444 124.938Q246.471 124.56 248.506 124.231Q250.541 123.903 252.584 123.625Q254.627 123.346 256.676 123.118Q258.725 122.89 260.779 122.712Q262.833 122.535 264.891 122.407Q266.949 122.28 269.009 122.203Q271.069 122.127 273.131 122.1Q275.192 122.074 277.254 122.099Q279.315 122.123 281.376 122.199Q283.436 122.274 285.494 122.399Q287.552 122.525 289.606 122.701Q291.66 122.877 293.709 123.104Q295.759 123.331 297.802 123.607Q299.845 123.884 301.88 124.211Q303.916 124.538 305.943 124.915Q307.97 125.291 309.987 125.718Q312.004 126.144 314.01 126.62C321.856 128.549 329.518 130.931 336.959 134.095C360.37 144.049 386.443 162.831 399.779 184.901C395.381 184.896 391.012 184.953 386.732 186.092C383.245 187.026 379.76 188.017 376.239 188.817C374.353 185.22 370.56 181.967 367.761 179.043C350.754 161.272 326.794 149.989 302.781 145.658C298.277 144.845 293.557 144.031 288.977 143.93C271.794 141.382 243.009 145.494 226.721 151.539C220.618 153.578 214.573 155.866 208.818 158.761C182.236 172.13 157.962 195.651 144.654 222.323C143.463 224.708 142.348 227.114 141.376 229.598C141.237 229.951 141.315 229.818 141.08 230.086C138.048 229.111 134.929 228.319 131.863 227.452C127.685 226.846 123.562 226.592 119.344 226.534Z"/>
	<path fill="#F8F9F8" d="M131.863 227.452C132.609 224.74 134.313 221.795 135.508 219.235C144.304 200.402 157.605 184.103 173.388 170.665C178.55 166.27 184.149 162.393 189.854 158.742Q192.616 156.968 195.448 155.309Q198.28 153.649 201.179 152.108Q204.077 150.567 207.036 149.147Q209.996 147.726 213.011 146.428Q216.026 145.131 219.092 143.959Q222.158 142.786 225.27 141.741Q228.382 140.696 231.534 139.78Q234.686 138.864 237.873 138.078Q241.06 137.293 244.277 136.639Q247.494 135.985 250.735 135.465Q253.976 134.944 257.236 134.557Q260.495 134.17 263.768 133.918Q267.041 133.665 270.322 133.548Q273.602 133.43 276.885 133.448Q280.167 133.466 283.446 133.619Q286.725 133.771 289.995 134.059C318.592 136.399 347.261 148.226 368.856 167.201C375.481 173.021 381.054 179.39 386.732 186.092C383.245 187.026 379.76 188.017 376.239 188.817C374.353 185.22 370.56 181.967 367.761 179.043C350.754 161.272 326.794 149.989 302.781 145.658C298.277 144.845 293.557 144.031 288.977 143.93C271.794 141.382 243.009 145.494 226.721 151.539C220.618 153.578 214.573 155.866 208.818 158.761C182.236 172.13 157.962 195.651 144.654 222.323C143.463 224.708 142.348 227.114 141.376 229.598C141.237 229.951 141.315 229.818 141.08 230.086C138.048 229.111 134.929 228.319 131.863 227.452Z"/>
	<defs>
		<linearGradient id="gradient_1" gradientUnits="userSpaceOnUse" x1="262.50928" y1="237.88562" x2="249.92989" y2="147.90047">
			<stop offset="0" stop-color="#FEA500"/>
			<stop offset="1" stop-color="#FFE73F"/>
		</linearGradient>
	</defs>
	<path fill="url(#gradient_1)" d="M226.721 151.539C243.009 145.494 271.794 141.382 288.977 143.93C293.557 144.031 298.277 144.845 302.781 145.658C326.794 149.989 350.754 161.272 367.761 179.043C370.56 181.967 374.353 185.22 376.239 188.817C370.198 190.508 360.099 196.272 354.623 199.696C352.411 201.079 349.745 203.46 347.346 204.308C346.492 203.157 342.309 200.366 340.859 199.355Q338.14 197.467 335.316 195.741Q332.492 194.015 329.572 192.457Q326.651 190.899 323.645 189.513Q320.639 188.128 317.558 186.92Q314.476 185.712 311.329 184.686Q308.182 183.661 304.981 182.82Q301.779 181.979 298.534 181.327Q295.289 180.674 292.012 180.212Q290.716 180.011 289.416 179.842Q288.115 179.674 286.811 179.537Q285.507 179.4 284.2 179.295Q282.893 179.19 281.584 179.117Q280.274 179.045 278.964 179.004Q277.653 178.964 276.342 178.955Q275.03 178.947 273.719 178.971Q272.408 178.994 271.098 179.05Q269.788 179.106 268.479 179.194Q267.171 179.282 265.865 179.403Q264.56 179.523 263.257 179.675Q261.955 179.827 260.656 180.011Q259.358 180.195 258.065 180.411Q256.771 180.627 255.483 180.875Q254.196 181.122 252.914 181.401Q251.633 181.68 250.359 181.991Q249.085 182.301 247.819 182.643Q246.553 182.984 245.296 183.357Q244.038 183.73 242.791 184.133Q241.543 184.536 240.305 184.97Q239.068 185.404 237.842 185.868Q236.615 186.332 235.4 186.826Q234.186 187.32 232.983 187.844Q231.781 188.367 230.592 188.92Q229.403 189.473 228.228 190.055Q227.053 190.637 225.893 191.248Q224.732 191.859 223.587 192.498Q222.442 193.137 221.313 193.804Q220.184 194.471 219.072 195.165Q217.959 195.859 216.864 196.581Q215.769 197.302 214.692 198.051Q213.615 198.799 212.557 199.573C198.011 210.403 186.945 224.291 178.924 240.508C177.635 243.113 175.105 250.952 173.722 252.443C171.687 250.196 169.21 248.285 166.893 246.335C158.871 239.584 150.848 233.997 141.08 230.086C141.315 229.818 141.237 229.951 141.376 229.598C142.348 227.114 143.463 224.708 144.654 222.323C157.962 195.651 182.236 172.13 208.818 158.761C214.573 155.866 220.618 153.578 226.721 151.539Z"/>
	<path fill="#FEE24A" d="M226.721 151.539C243.009 145.494 271.794 141.382 288.977 143.93C288.883 143.942 288.788 143.955 288.693 143.965C285.376 144.325 281.843 143.417 278.611 144.05L278.414 144.393L279.15 144.106L278.377 144.197L278.837 144.317L278.683 144.786L279.322 145.551C279.157 146.807 278.154 147.566 277.189 148.302C271.489 152.644 259.051 156.094 251.888 156.808C248.562 157.139 245.112 157.035 241.769 157.083C239.071 157.121 236.21 157.372 233.538 156.957C231.632 156.66 228.267 155.93 226.813 154.668C226.512 153.386 227.814 152.504 226.721 151.539Z"/>
	<path fill="#12273F" d="M173.722 252.443C175.105 250.952 177.635 243.113 178.924 240.508C186.945 224.291 198.011 210.403 212.557 199.573Q213.615 198.799 214.692 198.051Q215.769 197.302 216.864 196.581Q217.959 195.859 219.072 195.165Q220.184 194.471 221.313 193.804Q222.442 193.137 223.587 192.498Q224.732 191.859 225.893 191.248Q227.053 190.637 228.228 190.055Q229.403 189.473 230.592 188.92Q231.781 188.367 232.983 187.844Q234.186 187.32 235.4 186.826Q236.615 186.332 237.842 185.868Q239.068 185.404 240.305 184.97Q241.543 184.536 242.791 184.133Q244.038 183.73 245.296 183.357Q246.553 182.984 247.819 182.643Q249.085 182.301 250.359 181.991Q251.633 181.68 252.914 181.401Q254.196 181.122 255.483 180.875Q256.771 180.627 258.065 180.411Q259.358 180.195 260.656 180.011Q261.955 179.827 263.257 179.675Q264.56 179.523 265.865 179.403Q267.171 179.282 268.479 179.194Q269.788 179.106 271.098 179.05Q272.408 178.994 273.719 178.971Q275.03 178.947 276.342 178.955Q277.653 178.964 278.964 179.004Q280.274 179.045 281.584 179.117Q282.893 179.19 284.2 179.295Q285.507 179.4 286.811 179.537Q288.115 179.674 289.416 179.842Q290.716 180.011 292.012 180.212Q295.289 180.674 298.534 181.327Q301.779 181.979 304.981 182.82Q308.182 183.661 311.329 184.686Q314.476 185.712 317.558 186.92Q320.639 188.128 323.645 189.513Q326.651 190.899 329.572 192.457Q332.492 194.015 335.316 195.741Q338.14 197.467 340.859 199.355C342.309 200.366 346.492 203.157 347.346 204.308C349.745 203.46 352.411 201.079 354.623 199.696C360.099 196.272 370.198 190.508 376.239 188.817C379.76 188.017 383.245 187.026 386.732 186.092C391.012 184.953 395.381 184.896 399.779 184.901C404.622 186.618 410.328 186.703 415.724 188.625C418.032 189.445 421.167 191.26 423.524 191.39C439.096 199.067 450.522 212.976 456.004 229.328C457.28 233.134 458.348 237.159 458.623 241.179C460.993 240.494 463.722 240.598 466.183 240.603C476.366 240.622 485.892 242.546 494.855 247.496C508.779 255.187 518.958 269.286 523.242 284.43C524.34 288.311 524.651 292.144 525.304 296.088C525.687 298.4 526.415 300.601 526.38 302.97C526.348 305.078 525.678 307.225 525.354 309.311C523.776 319.479 521.523 328.775 516.383 337.816C508.138 352.317 493.299 362.655 477.356 366.934C474.04 367.824 470.45 368.426 467.026 368.725C465.136 368.89 461.044 367.868 459.638 369.047C459.01 370.848 459.79 373.049 460.005 374.906C460.746 381.298 457.593 386.687 451.846 389.448C448.842 390.891 445.72 391.338 442.427 391.657C434.757 392.4 426.845 392.05 419.141 392.053L375.388 392.064C368.212 392.064 360.805 391.687 353.65 392.097L353.375 392.334C350.911 394.488 349.322 397.342 347.288 399.869C344.338 403.533 340.851 406.924 337.341 410.055C326.532 419.695 307.402 430.51 293.662 434.925C280.25 439.234 263.301 441.447 249.263 440.589C241.115 440.091 232.987 439.213 225.068 437.141C214.244 434.31 200.924 427.567 191.825 421.049C187.597 418.02 182.705 412.526 177.574 411.297C174.28 410.507 169.903 410.966 166.507 410.976C159.108 410.997 151.731 411.273 144.337 411.514C138.336 411.709 132.27 411.997 126.282 411.441C121.727 411.018 117.372 410.168 113.214 408.209C109.322 406.376 105.777 403.14 101.379 402.663C96.9171 402.18 91.4834 403.161 86.7472 402.914C71.7777 402.134 56.1479 394.102 46.2525 382.948C34.4783 369.676 29.2198 352.077 30.3518 334.525Q30.4427 333.126 30.6029 331.733Q30.763 330.34 30.992 328.957Q31.221 327.573 31.5182 326.203Q31.8154 324.833 32.1802 323.479Q32.5449 322.125 32.9763 320.791Q33.4077 319.457 33.9046 318.146Q34.4016 316.835 34.9628 315.55Q35.5241 314.265 36.1484 313.009Q36.7727 311.754 37.4584 310.531Q38.1441 309.308 38.8896 308.12Q39.635 306.933 40.4384 305.784Q41.2418 304.634 42.1011 303.527Q42.9604 302.419 43.8736 301.355Q44.7868 300.291 45.7515 299.273Q46.7163 298.256 47.7303 297.287Q48.7443 296.319 49.805 295.402C53.1615 292.507 56.784 290.106 60.829 288.291C63.0254 287.305 65.4007 286.503 67.4774 285.291L67.5265 284.92C68.1124 280.284 67.706 275.593 68.3445 270.901C70.0649 258.257 78.2221 246.091 88.0958 238.292C91.1766 235.859 95.3981 232.541 99.1094 231.291C101.479 230.793 103.74 229.542 106.077 228.851C110.387 227.577 114.897 227.071 119.344 226.534C123.562 226.592 127.685 226.846 131.863 227.452C134.929 228.319 138.048 229.111 141.08 230.086C150.848 233.997 158.871 239.584 166.893 246.335C169.21 248.285 171.687 250.196 173.722 252.443ZM227.766 402.862C223.319 403.88 219.942 407.295 215.48 408.442C213.617 408.92 211.574 409.323 209.662 409.532C206.445 409.882 201.832 409.21 198.939 410.626L198.688 411.109C200.591 414.969 220.192 422.647 224.705 424.161C243.213 430.371 262.756 429.969 281.647 425.914C287.586 424.689 301.318 420.093 306.876 417.425C309.083 416.365 311.052 415.004 313.057 413.608C305.071 413.117 297.08 414.211 289.101 414.6Q280.586 415.004 272.082 414.419Q263.577 413.835 255.198 412.269C249.646 411.281 244.375 409.654 239.121 407.629C236.937 406.786 229.557 402.519 227.766 402.862ZM316.058 405.107C312.308 405.239 296.578 404.676 294.155 407.111C294.097 407.169 294.055 407.24 294.006 407.304C294.341 407.927 294.684 408.092 295.362 408.301C296.274 408.58 297.289 408.632 298.221 408.857Q294.799 409.507 291.348 409.972C289.706 410.181 287.887 410.063 286.328 410.633L286.28 410.877C286.85 410.952 287.393 411.019 287.948 411.173C294.192 411.312 311.398 411.888 316.466 409.582L316.919 409.037C316.792 408.384 316.534 408.011 316.178 407.464L316.239 406.958C317.131 406.365 317.703 406.435 318.74 406.479C319.323 406.504 319.613 406.505 320.113 406.158L320.084 405.777C318.902 405.277 317.336 405.127 316.058 405.107Z"/>
	<path fill="#1A6BA4" d="M384.967 303.121C389.655 304.635 393.576 306.899 397.624 309.669C397.498 310.352 397.397 310.983 397.401 311.683C397.866 312.203 398.275 312.42 398.883 312.736C392.138 310.825 386.015 309.864 379.003 309.842C379.892 309.271 381.767 309.566 382.858 309.443C381.937 309.165 380.627 308.769 379.713 309.24C379.63 309.283 379.561 309.349 379.486 309.403L379.337 309.142C379.758 308.842 380.036 308.827 380.536 308.809C380.617 308.806 381.084 308.801 381.177 308.774C381.317 308.733 381.443 308.653 381.576 308.593C382.8 308.678 384.732 309.048 385.898 308.731C386.632 308.531 386.683 308.443 387.022 307.817C386.874 306.251 385.712 304.999 385.134 303.552L384.967 303.121Z"/>
	<path fill="#879DB7" d="M347.245 319.786C348.906 319.257 350.373 316.729 352.043 315.822C356.124 313.607 366.549 309.855 370.936 309.063C373.115 308.67 379.949 307.457 381.576 308.593C381.443 308.653 381.317 308.733 381.177 308.774C381.084 308.801 380.617 308.806 380.536 308.809C380.036 308.827 379.758 308.842 379.337 309.142L379.486 309.403C379.561 309.349 379.63 309.283 379.713 309.24C380.627 308.769 381.937 309.165 382.858 309.443C381.767 309.566 379.892 309.271 379.003 309.842C375.704 310.073 372.462 310.406 369.259 311.268C363.148 312.914 354.639 317.248 349.565 321.163L347.245 319.786Z"/>
	<path fill="#12273F" fill-opacity="0.81960785" d="M316.058 405.107C317.336 405.127 318.902 405.277 320.084 405.777L320.113 406.158C319.613 406.505 319.323 406.504 318.74 406.479C317.703 406.435 317.131 406.365 316.239 406.958L316.178 407.464C316.534 408.011 316.792 408.384 316.919 409.037L316.466 409.582C311.398 411.888 294.192 411.312 287.948 411.173C287.393 411.019 286.85 410.952 286.28 410.877L286.328 410.633C287.887 410.063 289.706 410.181 291.348 409.972Q294.799 409.507 298.221 408.857C297.289 408.632 296.274 408.58 295.362 408.301C294.684 408.092 294.341 407.927 294.006 407.304C294.055 407.24 294.097 407.169 294.155 407.111C296.578 404.676 312.308 405.239 316.058 405.107Z"/>
	<path fill="#20A5E3" d="M224.97 353.487C236.264 349.907 246.719 348.132 258.565 350.11C258.983 350.298 259.759 350.477 259.892 350.934C260.492 352.982 257.7 357.236 256.582 358.931C255.26 360.934 253.433 363.29 251.467 364.684L251.354 364.323C251.594 363.886 251.831 363.487 252.134 363.09L251.772 362.776C249.506 363.878 246.971 366.739 245.498 368.759C245.068 369.349 244.487 369.8 244.168 370.463L244.948 372.097L244.792 372.314L243.92 371.116Q243.563 370.369 243.171 369.639Q242.779 368.909 242.353 368.199Q241.927 367.488 241.469 366.799Q241.01 366.109 240.519 365.442Q240.029 364.774 239.508 364.13Q238.986 363.487 238.436 362.868Q237.885 362.25 237.305 361.658Q236.726 361.066 236.12 360.501Q235.513 359.937 234.881 359.402Q234.249 358.867 233.592 358.362Q232.935 357.857 232.256 357.384Q231.576 356.911 230.875 356.469Q230.174 356.028 229.453 355.621Q228.732 355.213 227.993 354.84Q227.253 354.466 226.497 354.128Q225.741 353.789 224.97 353.487Z"/>
	<defs>
		<linearGradient id="gradient_2" gradientUnits="userSpaceOnUse" x1="366.07489" y1="317.14581" x2="358.55914" y2="302.32367">
			<stop offset="0" stop-color="#6C92BC"/>
			<stop offset="1" stop-color="#E7F0FA"/>
		</linearGradient>
	</defs>
	<path fill="url(#gradient_2)" d="M338.687 315.806C343.781 311.277 345.506 308.54 352.007 305.198C362.51 299.799 373.89 299.625 384.967 303.121L385.134 303.552C385.712 304.999 386.874 306.251 387.022 307.817C386.683 308.443 386.632 308.531 385.898 308.731C384.732 309.048 382.8 308.678 381.576 308.593C379.949 307.457 373.115 308.67 370.936 309.063C366.549 309.855 356.124 313.607 352.043 315.822C350.373 316.729 348.906 319.257 347.245 319.786C344.461 318.239 341.74 316.75 338.687 315.806Z"/>
	<path fill="#118FD5" d="M486.775 332.3C486.894 332.202 487.017 332.108 487.132 332.006C488.336 330.937 488.781 328.078 488.767 326.528C488.759 325.51 488.487 324.457 488.27 323.465C488.741 323.424 489.264 323.862 489.618 324.161C492.538 326.63 493.487 333.056 493.836 336.694C493.968 338.076 493.892 339.635 494.191 340.981C494.456 342.173 495.406 343.652 495.922 344.775C495.535 345.734 490.15 349.322 488.974 349.886L488.689 350.306L488.838 350.613C487.467 351.821 485.628 352.628 483.996 353.418C474.431 358.049 463.684 358.929 453.188 358.279C449.48 358.049 445.867 357.323 442.241 356.561C439.838 356.76 435.507 355.545 432.984 355.106C431.811 352.473 430.801 349.541 430.623 346.645C430.554 345.52 430.49 344.579 431.26 343.683C431.693 344.035 431.631 346.547 431.916 347.361C432.422 347.333 432.169 347.318 432.674 347.408C432.643 347.904 432.539 348.094 432.802 348.531L433.313 348.132C434.637 344.484 436.404 346.19 438.094 344.135C438.144 344.075 438.177 344.002 438.218 343.935L438.753 343.829C435.119 343.367 431.482 343.601 427.817 342.997C429.762 342.933 431.951 343.215 433.842 342.939Q444.827 343.253 455.814 343.045C462.346 342.968 469.805 343.447 476.082 341.486C480.577 338.629 483.799 336.879 486.775 332.3Z"/>
	<path fill="#0B4883" d="M433.842 342.939Q444.827 343.253 455.814 343.045C462.346 342.968 469.805 343.447 476.082 341.486C475.944 342.27 475.568 342.716 474.944 343.187C469.721 347.132 447.246 347.083 439.719 347.182C438.857 347.193 436.162 346.837 435.452 347.277C434.857 347.646 434.562 348.351 434.441 348.995C434.954 351.973 436.152 350.622 435.521 354.742C437.363 355.857 440.57 355.282 442.241 356.561C439.838 356.76 435.507 355.545 432.984 355.106C431.811 352.473 430.801 349.541 430.623 346.645C430.554 345.52 430.49 344.579 431.26 343.683C431.693 344.035 431.631 346.547 431.916 347.361C432.422 347.333 432.169 347.318 432.674 347.408C432.643 347.904 432.539 348.094 432.802 348.531L433.313 348.132C434.637 344.484 436.404 346.19 438.094 344.135C438.144 344.075 438.177 344.002 438.218 343.935L438.753 343.829C435.119 343.367 431.482 343.601 427.817 342.997C429.762 342.933 431.951 343.215 433.842 342.939Z"/>
	<path fill="#F8F9F8" d="M121.755 348.292C125.297 340.359 133.901 334.042 141.831 331.054Q142.826 330.689 143.837 330.374Q144.848 330.059 145.874 329.793Q146.9 329.528 147.937 329.313Q148.974 329.098 150.021 328.934Q151.068 328.771 152.121 328.658Q153.174 328.546 154.232 328.485Q155.29 328.425 156.349 328.416Q157.408 328.408 158.467 328.451Q159.525 328.495 160.58 328.59Q161.636 328.685 162.685 328.832Q163.734 328.979 164.775 329.177Q165.815 329.375 166.845 329.623Q167.875 329.872 168.891 330.171Q169.907 330.47 170.908 330.819Q171.908 331.167 172.89 331.564Q173.872 331.961 174.834 332.406C184.879 337.074 192.83 345.198 196.599 355.654C196.796 356.201 196.945 356.741 197.079 357.305C197.015 357.789 197.014 358.147 197.129 358.619C197.166 358.769 197.205 358.919 197.244 359.069L196.827 359.526L196.983 359.489C196.771 359.225 196.477 358.805 196.187 358.604C195.584 358.185 194.79 358.051 194.071 358.014C191.95 357.903 189.726 358.321 187.592 358.382C184.381 358.473 181.109 358.176 177.916 357.844C166.287 356.638 154.078 355.167 142.778 352.104C138.929 351.06 128.54 346.477 124.9 346.786C124.747 346.798 124.595 346.821 124.443 346.839L124.197 346.599C124.579 346.081 124.969 345.643 125.065 344.987C124.523 345.241 124.641 345.102 124.319 345.518C123.675 346.352 123.05 347.598 122.101 348.117C121.988 348.179 121.87 348.233 121.755 348.292Z"/>
	<path fill="#1A6BA4" d="M258.565 350.11C260.329 350.344 262.1 350.693 263.757 351.366C265.227 351.79 265.468 352.151 266.412 353.333C266.431 353.358 266.457 353.376 266.48 353.397C264.342 355.247 262.389 357.126 260.648 359.359C258.99 362.304 258.072 365.155 258.95 368.56C259.836 371.999 261.888 373.767 264.298 376.154C266.979 377.625 269.559 378.681 272.575 379.259C277.893 380.277 283.718 380.004 289.126 380.033L314.329 380.086Q329.012 380.03 343.694 380.215C343.478 382.985 343.396 386.753 341.738 389.109C339.517 393.007 333.714 400.956 329.153 402.11C325.763 402.967 313.444 402.395 309.303 402.427L286.186 402.586C270.911 402.634 255.392 402.829 241.674 395.055C242.744 393.679 243.747 392.308 244.46 390.711C247.428 384.07 246.391 377.647 243.92 371.116L244.792 372.314L244.948 372.097L244.168 370.463C244.487 369.8 245.068 369.349 245.498 368.759C246.971 366.739 249.506 363.878 251.772 362.776L252.134 363.09C251.831 363.487 251.594 363.886 251.354 364.323L251.467 364.684C253.433 363.29 255.26 360.934 256.582 358.931C257.7 357.236 260.492 352.982 259.892 350.934C259.759 350.477 258.983 350.298 258.565 350.11Z"/>
	<path fill="#0B4883" d="M263.757 351.366C265.227 351.79 265.468 352.151 266.412 353.333C266.431 353.358 266.457 353.376 266.48 353.397C264.342 355.247 262.389 357.126 260.648 359.359C260.499 359.011 260.4 358.788 260.369 358.388C260.174 355.89 262.116 353.072 263.757 351.366Z"/>
	<path fill="#0B4883" d="M264.298 376.154C266.979 377.625 269.559 378.681 272.575 379.259C277.893 380.277 283.718 380.004 289.126 380.033L314.329 380.086Q329.012 380.03 343.694 380.215C343.478 382.985 343.396 386.753 341.738 389.109C341.504 386.974 342.833 385.226 342.905 383.146C342.922 382.647 342.976 382.346 342.52 382.013C341.574 381.323 339.183 381.119 337.988 381.021C333.402 380.644 328.586 380.939 323.967 380.948C320.868 380.954 317.67 380.711 314.586 380.893C312.508 380.165 308.922 380.637 306.63 380.643C295.753 380.67 278.164 382.129 268.356 378.798C266.917 378.31 265.84 377.488 264.528 376.798C264.425 376.744 264.319 376.695 264.215 376.643L264.298 376.154Z"/>
	<defs>
		<linearGradient id="gradient_3" gradientUnits="userSpaceOnUse" x1="440.95645" y1="343.21991" x2="444.82468" y2="297.25156">
			<stop offset="0" stop-color="#A4B5CA"/>
			<stop offset="1" stop-color="#F0F5F7"/>
		</linearGradient>
	</defs>
	<path fill="url(#gradient_3)" d="M398.314 307.779C401.959 301.894 405.766 296.86 412.811 295.159C418.818 293.709 425.168 295.15 430.38 298.339C436.128 301.857 440.803 307.761 442.327 314.383Q442.569 315.41 442.694 316.458C445.273 316.582 447.826 316.69 450.405 316.454C450.597 314.973 450.87 313.634 451.316 312.206C452.779 310.328 454.178 309.174 456.263 308.054C464.167 306.353 472.527 308.317 479.312 312.69C483.283 315.249 486.701 319.419 487.761 324.094C488.415 326.982 487.809 329.607 486.775 332.3C483.799 336.879 480.577 338.629 476.082 341.486C469.805 343.447 462.346 342.968 455.814 343.045Q444.827 343.253 433.842 342.939C431.951 343.215 429.762 342.933 427.817 342.997C426.583 340.908 425.879 338.304 424.842 336.088C423.084 332.331 420.51 329.009 417.984 325.747C416.415 324.52 415.145 322.702 413.619 321.37C411.272 319.321 408.505 317.657 405.888 315.971C403.578 314.814 401.272 313.728 398.883 312.736C398.275 312.42 397.866 312.203 397.401 311.683C397.397 310.983 397.498 310.352 397.624 309.669C397.808 309.017 398.059 308.405 398.314 307.779Z"/>
	<path fill="#879DB7" d="M398.314 307.779C398.885 308.467 399.261 308.868 400.089 309.222C407.569 312.676 416.608 319.438 421.56 326.149C422.414 327.306 422.925 328.689 423.677 329.91C423.991 330.42 424.505 330.836 424.794 331.331C424.842 331.414 424.859 331.512 424.891 331.602L424.394 331.671L424.28 332.294C425.605 334.099 426.951 335.897 428.158 337.783C429.175 339.374 430.042 341.104 431.266 342.543C432.022 342.544 433.168 342.369 433.768 342.825C433.804 342.853 433.818 342.901 433.842 342.939C431.951 343.215 429.762 342.933 427.817 342.997C426.583 340.908 425.879 338.304 424.842 336.088C423.084 332.331 420.51 329.009 417.984 325.747C416.415 324.52 415.145 322.702 413.619 321.37C411.272 319.321 408.505 317.657 405.888 315.971C403.578 314.814 401.272 313.728 398.883 312.736C398.275 312.42 397.866 312.203 397.401 311.683C397.397 310.983 397.498 310.352 397.624 309.669C397.808 309.017 398.059 308.405 398.314 307.779Z"/>
	<path fill="#20A5E3" d="M40.7616 343.672C41.0919 344.013 41.2199 344.145 41.3295 344.619C41.4312 345.059 41.501 345.154 41.8126 345.468Q42.336 345.215 42.8663 344.977C43.3327 345.11 43.6761 345.265 44.0755 345.534L44.4902 345.818C45.7279 345.956 46.4913 345.125 47.6251 345.049C49.0215 344.956 50.908 345.582 52.3214 345.787C55.4201 346.236 58.5457 346.442 61.6579 346.771C62.8407 346.896 64.0079 347.2 65.1912 347.286C68.1947 347.505 71.0613 346.683 74.0029 346.67C75.1617 346.664 76.4563 347.289 77.5647 346.994C79.7138 346.422 81.8905 345.562 84.0757 345.172C84.8722 345.03 84.6996 344.358 85.2431 343.954C86.554 342.981 88.9791 343.053 90.4297 342.022C92.9915 340.2 95.8826 338.942 98.5181 337.262C99.5184 336.625 100.365 335.752 101.367 335.105C103.467 333.749 105.943 332.618 108.191 331.519C111.594 329.856 115.177 328.561 118.496 326.721C123.372 324.018 127.729 320.141 132.911 318.015C136.409 316.58 140.323 315.636 144.023 314.885C148.944 313.886 157.314 313.911 161.107 310.39C164.417 307.318 163.188 292.042 163.384 287.388C163.826 288.908 164.049 298.198 164.366 300.908C164.554 302.512 165.411 305.118 165.061 306.622C165.029 306.759 164.989 306.894 164.953 307.03L165.153 307.168C165.521 306.73 165.503 306.419 165.531 305.868C165.536 305.763 165.545 305.198 165.594 305.082C165.664 304.913 165.793 304.775 165.893 304.621C165.903 304.573 165.914 304.524 165.923 304.475C166.448 301.557 168.189 299.214 168.684 296.358C169.142 293.719 168.101 291.32 168.376 288.756C168.534 288.518 168.593 288.272 168.881 288.206C168.793 289.275 168.8 290.313 168.829 291.384L169.132 291.837C169.453 299.48 170.256 306.668 172.085 314.12C172.316 315.769 172.691 317.354 173.09 318.969C173.29 320.349 173.977 321.502 174.196 322.82C158.685 319.022 145.431 318.031 131.191 326.746C121.563 332.638 114.8 341.821 110.83 352.283C107.931 352.762 105.243 353.578 102.495 354.603C100.084 355.903 97.8146 357.265 95.7797 359.115C91.4349 363.064 88.9888 368.307 88.7847 374.176C88.5106 382.061 92.0326 386.921 97.1993 392.419Q94.7833 392.568 92.3627 392.584Q91.0949 392.584 89.8285 392.523Q88.5621 392.462 87.3003 392.339Q86.0384 392.217 84.784 392.033Q83.5295 391.849 82.2856 391.604Q81.0416 391.359 79.8109 391.054Q78.5803 390.75 77.366 390.385Q76.1516 390.021 74.9564 389.598Q73.7612 389.175 72.588 388.694Q71.4148 388.214 70.2664 387.677Q69.1179 387.139 67.9969 386.547Q66.8759 385.955 65.7851 385.309Q64.6942 384.663 63.6361 383.964Q62.5779 383.266 61.555 382.517Q60.532 381.768 59.5467 380.97Q58.5614 380.172 57.616 379.328Q56.6707 378.483 55.7675 377.593C47.2231 369.099 40.8177 355.86 40.7616 343.672Z"/>
	<path fill="#1A6BA4" d="M165.893 304.621C165.903 304.573 165.914 304.524 165.923 304.475C166.448 301.557 168.189 299.214 168.684 296.358C169.142 293.719 168.101 291.32 168.376 288.756C168.534 288.518 168.593 288.272 168.881 288.206C168.793 289.275 168.8 290.313 168.829 291.384L169.132 291.837C169.453 299.48 170.256 306.668 172.085 314.12C172.316 315.769 172.691 317.354 173.09 318.969C173.29 320.349 173.977 321.502 174.196 322.82C158.685 319.022 145.431 318.031 131.191 326.746C121.563 332.638 114.8 341.821 110.83 352.283C107.931 352.762 105.243 353.578 102.495 354.603C104.073 352.5 106.646 352.902 108.804 352.046C109.452 351.79 110.083 351.644 110.633 351.208C111.635 346.902 115.943 340.301 118.705 336.843C125.667 328.124 137.444 320.878 148.646 319.608C152.552 319.166 156.578 319.751 160.45 319.241C162.776 318.935 163.885 318.003 165.273 316.174L164.751 315.753C165.631 312.901 166.716 307.482 165.893 304.621Z"/>
	<defs>
		<linearGradient id="gradient_4" gradientUnits="userSpaceOnUse" x1="165.92044" y1="402.16046" x2="168.97276" y2="347.27652">
			<stop offset="0" stop-color="#AAB8C8"/>
			<stop offset="1" stop-color="#F9F9F9"/>
		</linearGradient>
	</defs>
	<path fill="url(#gradient_4)" d="M121.755 348.292C121.87 348.233 121.988 348.179 122.101 348.117C123.05 347.598 123.675 346.352 124.319 345.518C124.641 345.102 124.523 345.241 125.065 344.987C124.969 345.643 124.579 346.081 124.197 346.599L124.443 346.839C124.595 346.821 124.747 346.798 124.9 346.786C128.54 346.477 138.929 351.06 142.778 352.104C154.078 355.167 166.287 356.638 177.916 357.844C181.109 358.176 184.381 358.473 187.592 358.382C189.726 358.321 191.95 357.903 194.071 358.014C194.79 358.051 195.584 358.185 196.187 358.604C196.477 358.805 196.771 359.225 196.983 359.489L196.827 359.526L197.244 359.069C197.205 358.919 197.166 358.769 197.129 358.619C197.014 358.147 197.015 357.789 197.079 357.305C197.281 357.829 197.531 358.941 197.989 359.254C198.735 359.764 199.604 359.788 200.47 359.68C201.69 359.529 202.901 359.485 204.128 359.432C204.376 359.874 204.65 360.49 204.994 360.855C205.285 361.163 205.585 361.362 206.009 361.362C207.367 361.361 209.049 360.569 210.378 360.229C211.833 359.857 213.412 359.664 214.907 359.53C221.127 358.973 226.867 361.309 231.588 365.299C234.999 368.181 237.733 371.735 238.012 376.372C238.216 379.757 236.859 383.554 234.591 386.077C231.457 389.562 227.449 389.281 223.18 389.46C222.522 392.288 221.415 394.634 219.298 396.682C217.362 398.554 214.698 399.987 212.025 400.419C207.1 401.213 202.108 400.829 197.146 400.751L180.613 400.637L146.147 400.549C139.179 400.551 132.181 400.685 125.216 400.491C118.422 400.301 111.64 399.287 108.718 392.072C108.161 390.696 108.293 388.374 107.914 387.542C107.506 386.649 104.256 385.663 103.338 385.092C102.354 384.48 101.422 383.61 100.634 382.762C98.2287 380.171 96.6369 376.584 96.8316 373.01C97.0305 369.361 99.1245 366.345 101.816 364.03C106.674 359.854 111.686 360.055 117.654 360.472C118.325 356.783 119.37 351.296 121.755 348.292Z"/>
	<defs>
		<linearGradient id="gradient_5" gradientUnits="userSpaceOnUse" x1="353.29004" y1="383.76389" x2="357.26401" y2="317.00821">
			<stop offset="0" stop-color="#B5C3D4"/>
			<stop offset="1" stop-color="#FFFFFD"/>
		</linearGradient>
	</defs>
	<path fill="url(#gradient_5)" d="M348.157 331.181C350.336 330.258 352.563 329.368 354.576 328.112C357.315 326.401 359.798 324.294 362.613 322.705C372.431 317.163 385.233 316.751 395.619 320.91Q396.593 321.298 397.547 321.735Q398.501 322.172 399.431 322.656Q400.362 323.14 401.267 323.669Q402.172 324.199 403.05 324.774Q403.927 325.348 404.775 325.966Q405.623 326.584 406.438 327.243Q407.254 327.903 408.036 328.602Q408.817 329.301 409.563 330.039Q410.309 330.777 411.016 331.551Q411.724 332.325 412.392 333.133Q413.061 333.942 413.687 334.783Q414.314 335.624 414.898 336.495Q415.482 337.367 416.022 338.266Q416.561 339.165 417.055 340.091Q417.549 341.016 417.996 341.965Q418.443 342.914 418.842 343.884C421.774 350.824 423.072 358.55 421.644 366.014C429.264 365.466 439.607 363.974 445.982 369.305C447.881 370.893 449.811 373.256 449.933 375.841C449.985 376.961 449.627 377.995 448.854 378.815C448.084 379.632 446.995 380.27 445.879 380.431C442.254 380.952 438.324 380.636 434.657 380.612L415.501 380.517L343.694 380.215Q329.012 380.03 314.329 380.086L289.126 380.033C283.718 380.004 277.893 380.277 272.575 379.259C269.559 378.681 266.979 377.625 264.298 376.154C261.888 373.767 259.836 371.999 258.95 368.56C258.072 365.155 258.99 362.304 260.648 359.359C262.389 357.126 264.342 355.247 266.48 353.397C273.316 349.587 285.827 346.653 293.503 348.819C297.795 350.03 300.761 351.451 305.329 352.16C304.276 345.8 305.774 338.628 309.507 333.361C313.37 327.912 319.459 323.835 326.093 322.719C331.834 321.753 338.505 322.996 343.251 326.446C345.1 327.789 346.678 329.445 348.157 331.181Z"/>
	<path fill="#2DD2F6" d="M80.4561 293.027C78.5719 288.345 77.3774 283.388 77.3519 278.325C77.2981 267.642 81.9792 256.719 89.4936 249.167C98.1035 240.513 109.993 235.992 122.115 236.062C137.731 236.153 152.099 243.018 163.155 253.853C166.076 256.716 168.413 260.111 171.281 262.99L171.561 263.269C170.945 268.419 169.901 273.491 169.506 278.677C169.173 283.051 169.49 287.497 169.132 291.837L168.829 291.384C168.8 290.313 168.793 289.275 168.881 288.206C168.593 288.272 168.534 288.518 168.376 288.756C168.101 291.32 169.142 293.719 168.684 296.358C168.189 299.214 166.448 301.557 165.923 304.475C165.914 304.524 165.903 304.573 165.893 304.621C165.793 304.775 165.664 304.913 165.594 305.082C165.545 305.198 165.536 305.763 165.531 305.868C165.503 306.419 165.521 306.73 165.153 307.168L164.953 307.03C164.989 306.894 165.029 306.759 165.061 306.622C165.411 305.118 164.554 302.512 164.366 300.908C164.049 298.198 163.826 288.908 163.384 287.388C163.188 292.042 164.417 307.318 161.107 310.39C157.314 313.911 148.944 313.886 144.023 314.885C140.323 315.636 136.409 316.58 132.911 318.015C127.729 320.141 123.372 324.018 118.496 326.721C115.177 328.561 111.594 329.856 108.191 331.519C105.943 332.618 103.467 333.749 101.367 335.105C100.365 335.752 99.5184 336.625 98.5181 337.262C95.8826 338.942 92.9915 340.2 90.4297 342.022C88.9791 343.053 86.554 342.981 85.2431 343.954C84.6996 344.358 84.8722 345.03 84.0757 345.172C81.8905 345.562 79.7138 346.422 77.5647 346.994C76.4563 347.289 75.1617 346.664 74.0029 346.67C71.0613 346.683 68.1947 347.505 65.1912 347.286C64.0079 347.2 62.8407 346.896 61.6579 346.771C58.5457 346.442 55.4201 346.236 52.3214 345.787C50.908 345.582 49.0215 344.956 47.6251 345.049C46.4913 345.125 45.7279 345.956 44.4902 345.818L44.0755 345.534C43.6761 345.265 43.3327 345.11 42.8663 344.977Q42.336 345.215 41.8126 345.468C41.501 345.154 41.4312 345.059 41.3295 344.619C41.2199 344.145 41.0919 344.013 40.7616 343.672C40.7314 343.558 40.6927 343.446 40.671 343.33C40.2848 341.271 40.4605 338.678 40.5957 336.583C41.1909 327.357 43.6949 318.478 49.0456 310.851C54.3819 303.245 62.0121 297.453 70.996 294.893C74.0626 294.019 77.3178 293.583 80.4561 293.027Z"/>
	<path fill="#F8F9F8" d="M63.5231 323.943C64.3734 323.906 65.1733 323.892 65.9961 324.145Q66.2453 324.221 66.4853 324.322Q66.7254 324.424 66.9538 324.549Q67.1822 324.674 67.3965 324.822Q67.6108 324.97 67.8088 325.14Q68.0068 325.309 68.1864 325.498Q68.366 325.687 68.5253 325.893Q68.6846 326.099 68.8219 326.32Q68.9592 326.542 69.073 326.776Q69.1844 327.008 69.2725 327.25Q69.3605 327.492 69.4242 327.741Q69.488 327.991 69.5269 328.245Q69.5657 328.5 69.5793 328.757Q69.5929 329.014 69.5811 329.271Q69.5693 329.528 69.5322 329.783Q69.4951 330.038 69.4331 330.288Q69.3711 330.537 69.2848 330.78C68.6551 332.55 67.5684 333.214 65.9226 333.954C65.0423 334 64.2275 333.998 63.3849 333.696C62.0539 333.22 60.9962 332.163 60.4537 330.865Q60.3552 330.626 60.2807 330.378Q60.2062 330.13 60.1564 329.876Q60.1066 329.622 60.082 329.364Q60.0574 329.106 60.0582 328.847Q60.059 328.588 60.0852 328.331Q60.1114 328.073 60.1628 327.82Q60.2142 327.566 60.2902 327.318Q60.3662 327.071 60.4662 326.832C61.0804 325.365 62.1044 324.568 63.5231 323.943Z"/>
	<path fill="#F8F9F8" d="M119.498 245.554C119.583 245.543 119.668 245.528 119.754 245.519C126.905 244.754 134.705 247.167 140.291 251.639C145.871 256.105 150.118 262.795 150.879 269.983C151.196 272.975 151.359 277.155 149.281 279.555C148.008 281.025 146.571 280.993 144.78 281.133C144.876 275.39 145.007 269.837 142.409 264.551C139.561 258.756 134.831 255.332 128.838 253.298C127.556 252.917 126.283 252.612 124.961 252.409C119.119 251.515 113.504 253.125 108.78 256.64C104.67 259.697 101.427 264.672 100.316 269.685C99.9206 271.466 99.8385 273.333 99.5215 275.132C99.3779 275.946 99.3658 276.406 98.6701 276.883Q98.2343 276.879 97.8036 276.812Q97.3729 276.746 96.9561 276.618Q96.5394 276.491 96.1453 276.305Q95.7511 276.119 95.3877 275.878C94.4948 275.28 94.1302 274.291 93.9932 273.266C93.2888 267.998 96.0606 261.266 99.1532 257.112C103.95 250.669 111.632 246.655 119.498 245.554Z"/>
	<defs>
		<linearGradient id="gradient_6" gradientUnits="userSpaceOnUse" x1="415.87405" y1="313.77109" x2="454.25034" y2="213.85991">
			<stop offset="0" stop-color="#26B3ED"/>
			<stop offset="1" stop-color="#38EDFE"/>
		</linearGradient>
	</defs>
	<path fill="url(#gradient_6)" d="M354.938 212.731C360.262 206.385 372.018 199.956 379.878 197.451C384.074 196.114 388.551 195.391 392.932 195.018Q394.168 194.922 395.407 194.887Q396.646 194.851 397.886 194.876Q399.125 194.901 400.362 194.987Q401.599 195.072 402.83 195.218Q404.061 195.364 405.283 195.569Q406.506 195.775 407.717 196.04Q408.928 196.305 410.125 196.629Q411.321 196.953 412.501 197.334Q413.68 197.716 414.839 198.155Q415.999 198.594 417.135 199.089Q418.272 199.584 419.383 200.134Q420.494 200.684 421.577 201.287Q422.66 201.891 423.712 202.546Q424.764 203.202 425.783 203.908Q426.802 204.614 427.785 205.369Q428.769 206.124 429.714 206.926C439.451 215.135 446.306 228.288 447.364 240.993C447.608 243.914 447.572 246.882 447.558 249.811C461.845 249.519 474.978 248.332 488.287 254.92C492.563 257.037 496.571 259.667 500.012 262.987C510.421 273.029 515.421 287.902 515.605 302.133Q515.626 303.52 515.579 304.907Q515.532 306.293 515.417 307.675Q515.302 309.058 515.119 310.433Q514.936 311.808 514.685 313.172Q514.435 314.537 514.118 315.887Q513.801 317.238 513.417 318.571Q513.034 319.904 512.586 321.217Q512.138 322.53 511.626 323.819Q511.114 325.109 510.539 326.371Q509.964 327.633 509.327 328.866Q508.691 330.099 507.995 331.299Q507.299 332.499 506.545 333.663Q505.791 334.827 504.98 335.953Q504.169 337.079 503.304 338.163Q502.44 339.248 501.522 340.289Q500.605 341.33 499.638 342.324C496.599 345.421 492.763 348.712 488.838 350.613L488.689 350.306L488.974 349.886C490.15 349.322 495.535 345.734 495.922 344.775C495.406 343.652 494.456 342.173 494.191 340.981C493.892 339.635 493.968 338.076 493.836 336.694C493.487 333.056 492.538 326.63 489.618 324.161C489.264 323.862 488.741 323.424 488.27 323.465C488.487 324.457 488.759 325.51 488.767 326.528C488.781 328.078 488.336 330.937 487.132 332.006C487.017 332.108 486.894 332.202 486.775 332.3C487.809 329.607 488.415 326.982 487.761 324.094C486.701 319.419 483.283 315.249 479.312 312.69C472.527 308.317 464.167 306.353 456.263 308.054C454.178 309.174 452.779 310.328 451.316 312.206C450.723 310.882 450.402 309.485 449.821 308.159C447.724 303.374 444.589 299.313 440.872 295.675C436.946 292.535 432.649 289.919 427.937 288.138C420.046 285.155 411.018 285.214 403.425 289.068C400.516 290.545 397.91 292.585 394.923 293.918L394.589 294.064C390.134 293.369 385.704 292.218 381.216 291.781C382.063 283.645 382.564 276.764 382.081 268.517C381.582 267.109 381.52 265.141 381.266 263.645C380.727 260.463 380.081 257.271 379.186 254.169C374.608 238.307 365.542 225.142 354.938 212.731Z"/>
	<path fill="#F8F9F8" d="M496.337 289.296C497.149 289.186 497.999 289.042 498.809 289.235C500.13 289.549 501.295 290.519 501.919 291.712Q502.04 291.948 502.137 292.195Q502.234 292.442 502.306 292.697Q502.378 292.952 502.424 293.213Q502.47 293.475 502.489 293.739Q502.509 294.004 502.502 294.269Q502.495 294.534 502.462 294.797Q502.428 295.06 502.369 295.318Q502.309 295.577 502.224 295.828C501.647 297.569 500.387 298.268 498.82 299.027C498.134 299.146 497.418 299.178 496.73 299.039C495.537 298.799 494.295 298.057 493.627 297.027C492.914 295.929 492.732 294.598 493.007 293.33C493.435 291.354 494.682 290.294 496.337 289.296Z"/>
	<path fill="#118FD5" d="M382.081 268.517L382.635 268.755C383.039 270.426 382.8 272.178 383.109 273.873C383.476 275.885 384.944 277.586 385.405 279.617C386.25 283.343 386.006 288.904 387.944 292.109C390.378 293.171 395.213 292.405 397.64 291.445C402.293 289.604 404.18 286.739 409.87 285.267C409.975 285.239 410.08 285.208 410.185 285.178L410.348 284.883L410.165 284.582C412.898 284.356 419.369 285.165 421.391 284.448C420.195 284.148 419.08 284.087 417.859 284.289C417.41 284.364 417.171 284.339 416.731 284.235C415.196 283.868 412.89 284.747 411.583 283.984C413.946 283.315 416.013 284.253 417.944 282.966L418.116 283.149L418.091 283.225L418.203 283.765C420.361 283.712 422.402 283.327 424.54 283.827C428.208 284.685 432.06 285.892 435.225 287.985L435.566 288.625L435.397 288.848C435.327 288.797 435.257 288.745 435.186 288.695C434.456 288.187 433.966 288.032 433.112 287.847C432.012 287.61 431.419 287.021 430.226 287.115L430.245 287.344C430.933 287.699 431.616 288.064 432.309 288.408C435.426 289.955 438.447 292.849 441.311 294.915C445.78 297.285 448.351 301.636 451.261 305.606C452.042 306.672 452.831 307.93 453.879 308.735C454.298 308.536 454.661 308.332 455.056 308.087C455.565 307.77 455.324 307.854 455.879 307.8L456.263 308.054C454.178 309.174 452.779 310.328 451.316 312.206C450.723 310.882 450.402 309.485 449.821 308.159C447.724 303.374 444.589 299.313 440.872 295.675C436.946 292.535 432.649 289.919 427.937 288.138C420.046 285.155 411.018 285.214 403.425 289.068C400.516 290.545 397.91 292.585 394.923 293.918L394.589 294.064C390.134 293.369 385.704 292.218 381.216 291.781C382.063 283.645 382.564 276.764 382.081 268.517Z"/>
	<path fill="#F8F9F8" d="M398.752 211.177Q399.108 211.141 399.465 211.116C408.079 210.544 414.945 212.211 421.496 218.076C427.192 223.175 430.089 230.3 430.523 237.853C428.784 238.134 427.066 238.222 425.309 238.297C424.755 236.281 424.231 234.245 423.596 232.253C421.587 225.943 417.192 222.228 411.44 219.295Q410.904 219.058 410.353 218.86C401.675 215.654 391.375 217.985 385.795 225.695C384.222 227.868 383.525 230.554 382.22 232.883C381.883 233.485 381.179 234.291 380.477 234.483C379.893 234.642 379.415 234.584 378.922 234.21C378.157 233.63 377.774 232.549 377.615 231.641C377.068 228.508 379.246 224.172 381.061 221.673C385.343 215.777 391.653 212.294 398.752 211.177Z"/>
	<path fill="#FEBE0E" d="M173.722 252.443C175.105 250.952 177.635 243.113 178.924 240.508C186.945 224.291 198.011 210.403 212.557 199.573Q213.615 198.799 214.692 198.051Q215.769 197.302 216.864 196.581Q217.959 195.859 219.072 195.165Q220.184 194.471 221.313 193.804Q222.442 193.137 223.587 192.498Q224.732 191.859 225.893 191.248Q227.053 190.637 228.228 190.055Q229.403 189.473 230.592 188.92Q231.781 188.367 232.983 187.844Q234.186 187.32 235.4 186.826Q236.615 186.332 237.842 185.868Q239.068 185.404 240.305 184.97Q241.543 184.536 242.791 184.133Q244.038 183.73 245.296 183.357Q246.553 182.984 247.819 182.643Q249.085 182.301 250.359 181.991Q251.633 181.68 252.914 181.401Q254.196 181.122 255.483 180.875Q256.771 180.627 258.065 180.411Q259.358 180.195 260.656 180.011Q261.955 179.827 263.257 179.675Q264.56 179.523 265.865 179.403Q267.171 179.282 268.479 179.194Q269.788 179.106 271.098 179.05Q272.408 178.994 273.719 178.971Q275.03 178.947 276.342 178.955Q277.653 178.964 278.964 179.004Q280.274 179.045 281.584 179.117Q282.893 179.19 284.2 179.295Q285.507 179.4 286.811 179.537Q288.115 179.674 289.416 179.842Q290.716 180.011 292.012 180.212Q295.289 180.674 298.534 181.327Q301.779 181.979 304.981 182.82Q308.182 183.661 311.329 184.686Q314.476 185.712 317.558 186.92Q320.639 188.128 323.645 189.513Q326.651 190.899 329.572 192.457Q332.492 194.015 335.316 195.741Q338.14 197.467 340.859 199.355C342.309 200.366 346.492 203.157 347.346 204.308C347.256 205.484 347.626 205.872 348.384 206.784C350.248 209.026 352.663 210.924 354.938 212.731C365.542 225.142 374.608 238.307 379.186 254.169C380.081 257.271 380.727 260.463 381.266 263.645C381.52 265.141 381.582 267.109 382.081 268.517C382.564 276.764 382.063 283.645 381.216 291.781C379.355 292.098 376.886 291.626 374.975 291.472C361.714 291.073 348.506 294.268 338.641 303.591C335.461 306.596 332.941 310.231 329.752 313.22C317.696 315.937 307.483 319.951 300.572 330.809C298.657 333.818 297.002 337.062 295.417 340.257C289.682 338.618 282.816 339.608 277.614 342.473C276.245 343.227 275.056 344.138 273.858 345.137C267.511 343.471 261.032 341.67 254.498 340.925C237.765 339.016 221.041 344.688 206.547 352.687C200.035 341.386 192.662 333.581 181.757 326.42L180.197 325.379C178.307 324.325 176.211 323.597 174.196 322.82C173.977 321.502 173.29 320.349 173.09 318.969C172.691 317.354 172.316 315.769 172.085 314.12C170.256 306.668 169.453 299.48 169.132 291.837C169.49 287.497 169.173 283.051 169.506 278.677C169.901 273.491 170.945 268.419 171.561 263.269C172.147 260.99 173.08 258.821 173.75 256.567C174.223 254.978 174.549 253.976 173.722 252.443Z"/>
	<path fill="#FEE24A" d="M328.047 209.429C329.347 208.183 330.22 207.329 332.059 207.165C329.901 208.362 329.087 211.865 326.957 213.508C327.202 212.066 327.526 210.799 328.047 209.429Z"/>
	<path fill="#F8F9F8" d="M265.711 193.927C268.017 193.315 270.608 193.284 272.993 193.191C282.886 192.805 292.178 193.899 301.904 195.6C304.463 196.047 307.864 196.333 310.172 197.575C310.693 197.856 311.25 198.238 311.662 198.667L311.583 198.64C316.809 203.104 321.735 206.033 327.708 209.317L327.532 208.878C328.015 209.217 327.872 209.009 328.047 209.429C327.526 210.799 327.202 212.066 326.957 213.508C324.22 214.316 321.744 213.912 319.033 214.393C318.391 215.116 317.873 215.871 317.344 216.679C300.609 210.056 286.693 206.897 269.359 214.49C262.057 217.689 254.849 223.018 250.496 229.782C248.772 232.461 247.337 235.56 245.143 237.885C243.439 239.691 241.423 240.548 239.285 241.691C234.429 244.286 231.909 249.462 229.68 254.268C218.549 254.496 208.89 258.871 201.183 266.876C199.27 268.863 197.425 271.037 195.966 273.384C195.077 274.813 194.386 276.436 193.389 277.783C193.031 278.266 192.882 278.403 192.336 278.59C190.444 277.62 189.272 274.968 188.661 273.019C187.165 268.245 187.06 261.911 188.311 257.077C190.317 247.543 194.976 238.437 200.879 230.745C212.144 216.064 227.491 203.031 245.456 197.641C252.089 195.651 258.872 194.818 265.711 193.927Z"/>
	<path fill="#E4BF8D" d="M265.711 193.927C268.017 193.315 270.608 193.284 272.993 193.191C282.886 192.805 292.178 193.899 301.904 195.6C304.463 196.047 307.864 196.333 310.172 197.575C310.693 197.856 311.25 198.238 311.662 198.667L311.583 198.64C316.809 203.104 321.735 206.033 327.708 209.317L327.532 208.878C328.015 209.217 327.872 209.009 328.047 209.429C327.526 210.799 327.202 212.066 326.957 213.508C324.22 214.316 321.744 213.912 319.033 214.393C319.437 213.917 319.601 213.944 319.56 213.292C318.55 211.891 316.574 210.922 315.09 210.086C307.739 205.942 299.548 203.101 291.281 201.453C289.317 201.061 284.265 200.878 282.818 200.187C282.436 200.005 282.841 200.044 282.194 200.131L282.923 200.383L282.801 200.108C284.099 200.219 285.538 200.474 286.831 200.32C287.104 198.951 284.863 195.587 284.147 194.252C281.654 193.397 268.885 193.975 265.711 193.927Z"/>
	<path fill="#F8F9F8" d="M173.722 252.443C175.105 250.952 177.635 243.113 178.924 240.508C186.945 224.291 198.011 210.403 212.557 199.573Q213.615 198.799 214.692 198.051Q215.769 197.302 216.864 196.581Q217.959 195.859 219.072 195.165Q220.184 194.471 221.313 193.804Q222.442 193.137 223.587 192.498Q224.732 191.859 225.893 191.248Q227.053 190.637 228.228 190.055Q229.403 189.473 230.592 188.92Q231.781 188.367 232.983 187.844Q234.186 187.32 235.4 186.826Q236.615 186.332 237.842 185.868Q239.068 185.404 240.305 184.97Q241.543 184.536 242.791 184.133Q244.038 183.73 245.296 183.357Q246.553 182.984 247.819 182.643Q249.085 182.301 250.359 181.991Q251.633 181.68 252.914 181.401Q254.196 181.122 255.483 180.875Q256.771 180.627 258.065 180.411Q259.358 180.195 260.656 180.011Q261.955 179.827 263.257 179.675Q264.56 179.523 265.865 179.403Q267.171 179.282 268.479 179.194Q269.788 179.106 271.098 179.05Q272.408 178.994 273.719 178.971Q275.03 178.947 276.342 178.955Q277.653 178.964 278.964 179.004Q280.274 179.045 281.584 179.117Q282.893 179.19 284.2 179.295Q285.507 179.4 286.811 179.537Q288.115 179.674 289.416 179.842Q290.716 180.011 292.012 180.212Q295.289 180.674 298.534 181.327Q301.779 181.979 304.981 182.82Q308.182 183.661 311.329 184.686Q314.476 185.712 317.558 186.92Q320.639 188.128 323.645 189.513Q326.651 190.899 329.572 192.457Q332.492 194.015 335.316 195.741Q338.14 197.467 340.859 199.355C342.309 200.366 346.492 203.157 347.346 204.308C347.256 205.484 347.626 205.872 348.384 206.784C350.248 209.026 352.663 210.924 354.938 212.731C365.542 225.142 374.608 238.307 379.186 254.169C380.081 257.271 380.727 260.463 381.266 263.645C381.52 265.141 381.582 267.109 382.081 268.517C382.564 276.764 382.063 283.645 381.216 291.781C379.355 292.098 376.886 291.626 374.975 291.472C374.974 282.841 375.3 273.603 373.5 265.116C372.913 262.346 371.915 259.61 371.03 256.924C370.211 254.437 369.442 251.872 368.334 249.498C364.636 238.203 352.714 222.008 343.879 213.984C340.715 211.111 337.329 208.776 333.637 206.64C333.098 206.88 332.655 207.133 332.059 207.165C330.22 207.329 329.347 208.183 328.047 209.429C327.872 209.009 328.015 209.217 327.532 208.878L327.708 209.317C321.735 206.033 316.809 203.104 311.583 198.64L311.662 198.667C311.25 198.238 310.693 197.856 310.172 197.575C307.864 196.333 304.463 196.047 301.904 195.6C292.178 193.899 282.886 192.805 272.993 193.191C270.608 193.284 268.017 193.315 265.711 193.927C258.872 194.818 252.089 195.651 245.456 197.641C227.491 203.031 212.144 216.064 200.879 230.745C194.976 238.437 190.317 247.543 188.311 257.077C187.122 253.627 190.892 247.714 191.832 244.266C191.854 244.186 191.938 244.091 191.889 244.023C191.694 243.755 190.378 243.139 190.034 242.937C188.066 245.977 186.7 249.413 185.392 252.778C184.915 254.005 184.499 255.714 183.828 256.807C183.609 257.164 183.354 257.366 183.046 257.626C177.765 273.495 176.005 290.816 179.259 307.278L179.599 310.414C178.713 311.866 178.015 312.811 178.07 314.582C177.314 315.337 176.907 315.854 176.908 316.982C176.911 318.703 177.83 320.399 178.519 321.939C179.428 323.02 179.93 323.99 180.197 325.379C178.307 324.325 176.211 323.597 174.196 322.82C173.977 321.502 173.29 320.349 173.09 318.969C172.691 317.354 172.316 315.769 172.085 314.12C170.256 306.668 169.453 299.48 169.132 291.837C169.49 287.497 169.173 283.051 169.506 278.677C169.901 273.491 170.945 268.419 171.561 263.269C172.147 260.99 173.08 258.821 173.75 256.567C174.223 254.978 174.549 253.976 173.722 252.443Z"/>
	<path fill="#AEB2B9" d="M179.259 307.278L179.599 310.414C178.713 311.866 178.015 312.811 178.07 314.582C177.314 315.337 176.907 315.854 176.908 316.982C176.911 318.703 177.83 320.399 178.519 321.939C179.428 323.02 179.93 323.99 180.197 325.379C178.307 324.325 176.211 323.597 174.196 322.82C173.977 321.502 173.29 320.349 173.09 318.969C172.691 317.354 172.316 315.769 172.085 314.12C172.383 314.934 172.656 315.93 173.217 316.595C173.544 316.982 173.375 316.895 173.811 316.933C174.537 315.757 174.489 313.545 174.926 312.135L175.026 311.822C175.952 311.06 176.978 310.441 177.93 309.717C178.88 308.995 179.104 308.448 179.259 307.278Z"/>
	<path fill="#879DB7" d="M173.09 318.969C173.826 320.43 174.565 321.201 176.134 321.729C176.954 322.005 177.673 322.236 178.519 321.939C179.428 323.02 179.93 323.99 180.197 325.379C178.307 324.325 176.211 323.597 174.196 322.82C173.977 321.502 173.29 320.349 173.09 318.969Z"/>
	<path fill="#FAA21F" d="M183.046 257.626C185.671 248.456 190.62 239.822 196.054 232.03C210.966 210.651 232.927 195.53 258.735 190.926C279.215 187.273 301.701 189.522 320.506 198.685C325.115 200.931 329.435 203.714 333.637 206.64C333.098 206.88 332.655 207.133 332.059 207.165C330.22 207.329 329.347 208.183 328.047 209.429C327.872 209.009 328.015 209.217 327.532 208.878L327.708 209.317C321.735 206.033 316.809 203.104 311.583 198.64L311.662 198.667C311.25 198.238 310.693 197.856 310.172 197.575C307.864 196.333 304.463 196.047 301.904 195.6C292.178 193.899 282.886 192.805 272.993 193.191C270.608 193.284 268.017 193.315 265.711 193.927C258.872 194.818 252.089 195.651 245.456 197.641C227.491 203.031 212.144 216.064 200.879 230.745C194.976 238.437 190.317 247.543 188.311 257.077C187.122 253.627 190.892 247.714 191.832 244.266C191.854 244.186 191.938 244.091 191.889 244.023C191.694 243.755 190.378 243.139 190.034 242.937C188.066 245.977 186.7 249.413 185.392 252.778C184.915 254.005 184.499 255.714 183.828 256.807C183.609 257.164 183.354 257.366 183.046 257.626Z"/>
	<defs>
		<linearGradient id="gradient_7" gradientUnits="userSpaceOnUse" x1="293.30124" y1="339.8526" x2="271.69031" y2="280.31543">
			<stop offset="0" stop-color="#DB6305"/>
			<stop offset="1" stop-color="#FF9F07"/>
		</linearGradient>
	</defs>
	<path fill="url(#gradient_7)" d="M307.683 288.155C307.703 288.117 307.715 288.073 307.744 288.041C308.38 287.337 309.358 287.037 310.148 286.549C312.339 285.197 314.416 283.41 316.574 281.956C330.228 272.759 339.628 267.88 355.489 263.48C358.934 262.524 362.396 261.494 365.906 260.811C367.692 260.464 369.494 260.421 371.275 260.12C370.478 256.677 369.235 253.142 367.966 249.843L368.334 249.498C369.442 251.872 370.211 254.437 371.03 256.924C371.915 259.61 372.913 262.346 373.5 265.116C375.3 273.603 374.974 282.841 374.975 291.472C361.714 291.073 348.506 294.268 338.641 303.591C335.461 306.596 332.941 310.231 329.752 313.22C317.696 315.937 307.483 319.951 300.572 330.809C298.657 333.818 297.002 337.062 295.417 340.257C289.682 338.618 282.816 339.608 277.614 342.473C276.245 343.227 275.056 344.138 273.858 345.137C267.511 343.471 261.032 341.67 254.498 340.925C237.765 339.016 221.041 344.688 206.547 352.687C200.035 341.386 192.662 333.581 181.757 326.42L180.197 325.379C179.93 323.99 179.428 323.02 178.519 321.939C177.83 320.399 176.911 318.703 176.908 316.982C176.907 315.854 177.314 315.337 178.07 314.582C187.454 308.228 196.678 307.32 207.114 304.083C210.051 303.172 212.694 301.584 215.383 300.128C220.122 297.563 225.089 295.317 230.446 294.441C240.167 292.852 249.918 295.804 259.451 297.396Q261.324 297.695 263.209 297.897Q265.095 298.099 266.988 298.204Q268.882 298.308 270.778 298.315Q272.674 298.321 274.569 298.23Q276.463 298.139 278.35 297.95Q280.237 297.761 282.111 297.475Q283.986 297.189 285.843 296.807Q287.701 296.425 289.536 295.947C292.94 295.048 296.255 293.805 299.623 292.777C301.154 291.479 305.624 289.337 307.683 288.155Z"/>
	<path fill="#FAA21F" d="M299.623 292.777C301.154 291.479 305.624 289.337 307.683 288.155C306.376 290.661 303.995 292.416 301.341 293.296C300.374 293.617 299.379 293.768 298.464 294.237C297.901 295.321 297.038 295.101 296.357 295.937C296.677 296.584 296.804 296.491 297.438 296.763C296.893 298.206 293.738 299.747 292.319 300.395C289.636 301.62 286.628 302.254 283.994 303.52C282.197 304.384 280.548 305.623 278.81 306.606C276.552 307.881 273.603 308.953 271.13 309.714C268.761 310.443 266.109 310.293 263.698 310.86C261.893 311.286 260.336 312.65 258.515 312.996C254.214 313.812 249.642 313.938 245.294 314.564C243.486 314.824 241.759 315.633 239.974 316.031C238.016 316.468 235.907 316.391 233.917 316.781C229.483 317.649 225.281 319.289 220.932 320.399C217.984 321.152 214.913 321.34 211.957 322.061C207.241 323.212 201.761 324.853 196.89 324.783C195.28 323.565 193.123 322.783 191.664 321.507C190.896 320.835 190.497 319.562 189.661 319.008C189.227 318.721 188.543 318.575 188.043 318.429L187.832 318.105L188.122 317.55C186.808 316.528 184.054 315.619 183.418 314.075C183.253 313.674 183.092 313.358 182.818 313.017C181.586 312.904 179.962 313.87 179.083 314.688C178.524 315.208 178.342 315.742 178.325 316.497C178.26 319.384 181.969 322.063 182.812 324.806L182.316 324.908L182.187 324.687C182.058 325.269 181.938 325.851 181.757 326.42L180.197 325.379C179.93 323.99 179.428 323.02 178.519 321.939C177.83 320.399 176.911 318.703 176.908 316.982C176.907 315.854 177.314 315.337 178.07 314.582C187.454 308.228 196.678 307.32 207.114 304.083C210.051 303.172 212.694 301.584 215.383 300.128C220.122 297.563 225.089 295.317 230.446 294.441C240.167 292.852 249.918 295.804 259.451 297.396Q261.324 297.695 263.209 297.897Q265.095 298.099 266.988 298.204Q268.882 298.308 270.778 298.315Q272.674 298.321 274.569 298.23Q276.463 298.139 278.35 297.95Q280.237 297.761 282.111 297.475Q283.986 297.189 285.843 296.807Q287.701 296.425 289.536 295.947C292.94 295.048 296.255 293.805 299.623 292.777Z"/>
</svg>
